<svg width="476" height="366" viewBox="0 0 476 366" fill="none" xmlns="http://www.w3.org/2000/svg">
<path d="M174.658 238.434L174.603 238.303L174.513 238.193C162.693 223.687 152.952 207.462 146.012 190.724C139.073 173.986 135.119 157.182 134.427 141.56C133.662 120.98 138.609 102.943 143.55 84.9275C144.609 81.0662 145.668 77.2057 146.67 73.3213C152.052 52.4626 155.748 31.0467 148.711 5.56674C170.309 29.1852 188.621 56.3978 202.177 85.0492L201.855 96.442C201.846 96.4827 201.836 96.5361 201.823 96.6011C201.792 96.7605 201.749 96.9906 201.7 97.2795C201.603 97.8568 201.482 98.6715 201.389 99.628C201.203 101.527 201.116 104.044 201.557 106.384C201.994 108.7 202.99 111.053 205.156 112.308C207.162 113.471 209.893 113.535 213.485 112.226C218.885 127.138 222.81 142.014 225.175 156.519C229.249 182.87 228.235 207.457 222.235 228.596C216.376 249.243 205.9 266.114 191.535 278.147L174.658 238.434Z" fill="#2B4B1B" stroke="white" stroke-width="2"/>
<path d="M166.182 207.03L168.212 209.953L168.001 206.4L166.487 180.937C167.382 182.283 168.096 183.335 168.684 184.202L168.734 184.276C169.727 185.738 170.334 186.635 170.853 187.536C171.763 189.116 172.409 190.711 174.265 195.295C174.525 195.937 174.809 196.638 175.12 197.405C183.839 219.403 187.799 240.893 186.764 260.397C185.756 279.389 180.036 296.05 170.024 309.327L147.661 278.441L147.577 278.326L147.464 278.238C134.369 268.056 122.736 255.966 113.43 242.871C104.124 229.776 97.3929 216.026 93.7196 202.645C89.0061 184.987 89.74 168.385 90.4739 151.782C90.6313 148.223 90.7886 144.663 90.8923 141.092C91.4454 122.042 90.4453 102.834 79.4935 82.2844C89.9895 89.4205 97.5105 95.0984 104.364 101.439C111.949 108.456 118.743 116.31 127.851 127.897L163.882 177.058C157.964 181.933 158.604 189.468 160.531 195.484C161.55 198.664 162.962 201.546 164.112 203.626C164.689 204.669 165.203 205.515 165.574 206.102C165.76 206.396 165.91 206.626 166.014 206.783C166.067 206.861 166.108 206.922 166.136 206.964L166.169 207.012L166.178 207.025L166.18 207.028L166.181 207.03C166.182 207.03 166.182 207.03 167.003 206.46L166.182 207.03ZM162.436 194.874C160.666 189.348 160.284 183.365 164.386 179.297L165.765 202.48C164.672 200.485 163.374 197.8 162.436 194.874Z" fill="#787B34" stroke="white" stroke-width="2"/>
<path d="M124.524 248.172L125.221 250.472L126.361 248.356L125.481 247.882C126.361 248.356 126.361 248.356 126.361 248.356L126.361 248.355L126.363 248.353L126.368 248.344L126.387 248.308L126.462 248.167C126.528 248.044 126.625 247.861 126.75 247.623C127 247.148 127.362 246.452 127.815 245.566C128.719 243.795 129.982 241.267 131.419 238.231C134.174 232.408 137.575 224.704 140.306 216.899C155.054 222.714 168.801 229.61 181.236 237.429C203.692 251.807 221.459 268.834 233.342 287.318C244.948 305.371 250.668 324.388 250.188 343.121L209.243 329.503L209.109 329.459L208.967 329.453C190.269 328.72 171.657 325.29 154.515 319.421C137.373 313.552 122.156 305.4 109.984 295.583C94.0441 282.542 83.7918 266.9 73.551 251.276C71.3561 247.927 69.1617 244.579 66.912 241.258C54.831 223.422 41.2165 206.483 17.4545 194.902C49.352 194.334 81.767 198.576 112.136 207.309L124.524 248.172Z" fill="#68850E" stroke="white" stroke-width="2"/>
<circle cx="300" cy="206.5" r="159" fill="#E3DCBF"/>
<path d="M317.736 152.954C301.872 152.954 280.985 167.423 282.032 181.284C282.497 187.432 288.521 191.172 295.197 189.465C301.872 187.759 304.733 182.056 300.477 177.264C294.801 170.859 280.217 168.779 262.586 181.588C247.77 192.34 237.442 209.287 234 226" stroke="#68850E" stroke-width="2" stroke-linecap="round" stroke-linejoin="round"/>
<path d="M339.001 130.942L327.864 151.467L318.323 113.415L474.517 71L339.001 130.942Z" fill="#787B34" stroke="white" stroke-linejoin="round"/>
<path d="M352.206 141.185L327.985 151.467L339.122 130.942L352.206 141.185Z" fill="#2B4B1B" stroke="white" stroke-linejoin="round"/>
<path d="M305.005 87.4362L474.4 71L318.323 113.415L301.305 101.185C295.62 97.0954 298.034 88.1373 305.005 87.4362Z" fill="#68850E" stroke="white" stroke-linejoin="round"/>
<path d="M474.403 71L339.004 130.942L370.936 154.778C377.322 159.53 386.24 158.906 391.886 153.298L474.403 71Z" fill="#68850E" stroke="white" stroke-linejoin="round"/>
</svg>
