<svg width="638" height="478" viewBox="0 0 638 478" fill="none" xmlns="http://www.w3.org/2000/svg">
<path d="M150.44 303.704L150.388 303.573L150.302 303.462C138.585 288.26 128.961 271.283 122.142 253.793C115.323 236.303 111.491 218.766 110.913 202.485C110.297 181.039 115.377 162.286 120.449 143.559C121.536 139.545 122.623 135.533 123.653 131.495C129.191 109.796 133.042 87.5091 126.175 60.9024C147.622 85.6824 165.752 114.188 179.109 144.158L178.703 156.032C178.695 156.075 178.684 156.131 178.67 156.199C178.638 156.365 178.593 156.604 178.542 156.904C178.441 157.505 178.315 158.352 178.214 159.347C178.015 161.323 177.91 163.941 178.333 166.376C178.752 168.788 179.728 171.231 181.87 172.546C183.861 173.769 186.593 173.857 190.206 172.513C195.503 188.099 199.324 203.637 201.585 218.775C205.468 246.257 204.274 271.862 198.12 293.838C192.107 315.31 181.502 332.808 167.041 345.233L150.44 303.704Z" fill="#2B4B1B" stroke="white" stroke-width="2"/>
<path d="M142.405 278.633L142.043 281.085L143.968 279.625L143.378 278.802C143.968 279.625 143.968 279.625 143.969 279.625L143.969 279.624L143.971 279.622L143.98 279.616L144.013 279.591L144.141 279.493C144.254 279.406 144.42 279.279 144.635 279.112C145.066 278.778 145.694 278.287 146.484 277.659C148.065 276.403 150.297 274.597 152.904 272.392C157.909 268.161 164.311 262.451 170.15 256.345C180.937 268.448 190.353 281.115 198.188 294.06C212.224 317.674 220.886 341.668 223.613 364.384C226.277 386.585 223.211 407.044 214.663 424.44L183.617 393.206L183.514 393.102L183.388 393.033C166.844 383.926 151.544 372.326 138.623 359.096C125.702 345.866 115.504 331.358 108.77 316.657C100.033 297.228 97.5479 277.917 95.0665 258.63C94.5347 254.497 94.0031 250.365 93.4101 246.233C90.2204 224.008 85.2553 201.934 68.7694 180.326C97.821 194.159 125.258 212.758 148.899 234.662L142.405 278.633Z" fill="#68850E" stroke="white" stroke-width="2"/>
<path d="M549.925 321.03C560.008 310.594 572.079 302.151 585.216 296.329C578.816 307.225 577.772 319.04 577.561 330.918C577.52 333.212 577.51 335.505 577.5 337.795C577.453 348.448 577.406 359.03 574.284 369.271C571.866 376.995 567.732 384.385 562.179 390.887C556.626 397.391 549.801 402.834 542.212 406.81L542.045 406.897L541.92 407.041L528.938 421.906C523.816 411.747 521.142 400.307 521.101 388.306C521.058 375.809 523.872 362.996 529.36 350.752C532.502 343.913 536.475 337.343 541.186 331.198L549.925 321.03Z" fill="#787B34" stroke="white" stroke-width="2"/>
<path d="M566.671 384.208L568.829 386.574L568.376 383.345L564.822 358.02C575.731 348.812 588.378 341.741 601.825 337.319C594.441 347.527 592.31 359.186 591.002 370.992C590.75 373.271 590.528 375.552 590.306 377.831C589.275 388.429 588.251 398.959 584.197 408.839C581.077 416.284 576.28 423.225 570.153 429.14C564.026 435.056 556.731 439.789 548.811 442.986L548.635 443.057L548.496 443.188L534.206 456.679C530.044 446.052 528.439 434.395 529.507 422.443C530.619 409.999 534.603 397.528 541.197 385.891C544.764 379.731 549.052 373.887 553.973 368.484C556.796 372.443 559.836 376.225 562.23 379.083C563.526 380.631 564.635 381.91 565.42 382.803C565.813 383.25 566.125 383.6 566.339 383.839C566.446 383.958 566.529 384.05 566.585 384.112L566.649 384.183L566.665 384.201L566.67 384.206L566.671 384.207L566.671 384.207C566.671 384.207 566.671 384.208 567.399 383.508L566.671 384.208Z" fill="#2B4B1B" stroke="white" stroke-width="2"/>
<path d="M515.943 1H225.432C208.28 1 194.376 15.4247 194.376 33.2185V444.161C194.376 461.955 208.28 476.38 225.432 476.38H515.943C533.095 476.38 547 461.955 547 444.161V33.2185C547 15.4247 533.095 1 515.943 1Z" fill="#68850E" stroke="white" stroke-width="2"/>
<path d="M505.361 1H197.998C180.878 1 167 15.3974 167 33.1574V444.584C167 462.344 180.878 476.741 197.998 476.741H505.361C522.48 476.741 536.359 462.344 536.359 444.584V33.1574C536.359 15.3974 522.48 1 505.361 1Z" fill="white" stroke="#BDB689" stroke-width="2" stroke-miterlimit="10"/>
<path d="M314.519 34.2862H203.85C197.206 34.2862 191.821 39.873 191.821 46.7647C191.821 53.6564 197.206 59.2433 203.85 59.2433H314.519C321.162 59.2433 326.548 53.6564 326.548 46.7647C326.548 39.873 321.162 34.2862 314.519 34.2862Z" fill="#68850E"/>
<path d="M493.508 87.8313H209.85C200.396 87.8313 192.733 95.7813 192.733 105.588V419.901C192.733 429.708 200.396 437.658 209.85 437.658H493.508C502.961 437.658 510.624 429.708 510.624 419.901V105.588C510.624 95.7813 502.961 87.8313 493.508 87.8313Z" fill="#E3DCBF"/>
<path d="M280.758 313.696H231.731C225.088 313.696 219.703 319.283 219.703 326.174C219.703 333.066 225.088 338.653 231.731 338.653H280.758C287.401 338.653 292.786 333.066 292.786 326.174C292.786 319.283 287.401 313.696 280.758 313.696Z" fill="#68850E"/>
<path d="M436.807 359.308H225.938C222.494 359.308 219.703 362.197 219.703 365.761C219.703 369.325 222.494 372.214 225.938 372.214H436.807C440.25 372.214 443.041 369.325 443.041 365.761C443.041 362.197 440.25 359.308 436.807 359.308Z" fill="#787B34"/>
<path d="M436.807 391.405H225.938C222.494 391.405 219.703 394.294 219.703 397.857C219.703 401.421 222.494 404.31 225.938 404.31H436.807C440.25 404.31 443.041 401.421 443.041 397.857C443.041 394.294 440.25 391.405 436.807 391.405Z" fill="#787B34"/>
<path d="M453.393 251.669C453.393 221.648 427.924 150.682 390.926 150.682C356.928 150.682 331.253 213.166 331.253 213.166C331.253 213.166 319.607 183.571 297.903 183.571C269.434 183.571 253.376 231.868 253.376 251.7H453.393V251.669Z" fill="#787B34"/>
<path d="M305.872 160.963C318.005 160.963 327.841 150.76 327.841 138.173C327.841 125.585 318.005 115.382 305.872 115.382C293.739 115.382 283.903 125.585 283.903 138.173C283.903 150.76 293.739 160.963 305.872 160.963Z" fill="#FBF9ED"/>
</svg>
