<svg width="626" height="473" viewBox="0 0 626 473" fill="none" xmlns="http://www.w3.org/2000/svg">
<path d="M116.813 385.016L116.74 384.894L116.636 384.798C106.074 375.017 96.913 363.704 89.8309 351.702C82.7487 339.699 77.9366 327.33 75.7346 315.518C72.9445 299.938 74.7732 285.688 76.6048 271.415C76.9978 268.352 77.3909 265.289 77.7385 262.211C79.574 245.962 80.1074 229.445 72.366 211.06C91.0527 226.606 107.661 245.143 120.894 265.244L121.865 273.895C121.865 273.895 121.865 273.895 121.865 273.895C121.863 273.924 121.861 273.96 121.859 274.002C121.852 274.129 121.844 274.311 121.838 274.538C121.825 274.994 121.821 275.633 121.853 276.379C121.916 277.858 122.122 279.812 122.72 281.579C123.31 283.324 124.354 285.089 126.233 285.851C127.932 286.54 130.029 286.297 132.569 284.989C138.236 295.706 142.788 306.551 146.126 317.279C152.06 336.918 153.924 355.75 151.626 372.482C149.398 388.706 143.309 402.575 133.798 413.23L116.813 385.016Z" fill="#E3DCBF" stroke="white" stroke-width="2"/>
<path d="M112.266 372.336L112.253 374.739L113.967 373.055L113.266 372.341C113.967 373.055 113.967 373.055 113.967 373.054L113.967 373.054L113.969 373.052L113.975 373.047L113.997 373.024L114.085 372.938C114.162 372.861 114.275 372.749 114.421 372.602C114.714 372.308 115.14 371.878 115.675 371.328C116.744 370.229 118.251 368.653 120.001 366.743C123.314 363.126 127.511 358.299 131.267 353.235C140.714 360.819 149.191 368.96 156.508 377.476C169.751 393.146 178.937 409.69 183.47 425.96C187.865 441.736 187.782 456.882 183.282 470.438L156.493 451.283L156.377 451.201L156.244 451.154C142.667 446.369 129.768 439.622 118.503 431.417C107.238 423.212 97.9117 413.77 91.2015 403.802C82.4562 390.609 78.478 376.804 74.4933 362.977C73.6384 360.01 72.7832 357.042 71.8805 354.079C67.115 338.436 61.048 323.065 46.6449 309.264C69.8692 316.086 92.379 326.448 112.44 339.566L112.266 372.336Z" fill="#787B34" stroke="white" stroke-width="2"/>
<path d="M543.455 391.616L543.295 391.709L543.178 391.854L531.087 406.87C525.403 397.457 522.081 386.672 521.348 375.192C520.584 363.223 522.651 350.778 527.422 338.715C530.163 331.973 533.748 325.438 538.096 319.266L546.232 308.995C555.674 298.409 567.208 289.607 579.953 283.239C574.238 294.043 573.882 305.4 574.356 316.768C574.448 318.97 574.57 321.168 574.693 323.364C575.261 333.575 575.825 343.715 573.301 353.713C571.334 361.258 567.635 368.588 562.468 375.154C557.3 381.721 550.802 387.349 543.455 391.616Z" fill="#787B34" stroke="white" stroke-width="2"/>
<path d="M556.598 377.05L558.559 379.518L558.379 376.371L556.976 351.856C568.592 344.026 581.753 338.383 595.486 335.33C587.325 344.428 584.23 355.361 581.938 366.506C581.494 368.664 581.081 370.827 580.668 372.987C578.747 383.032 576.84 393.007 571.971 402.097C568.236 408.941 562.872 415.158 556.269 420.277C549.665 425.398 541.998 429.285 533.837 431.647L533.658 431.699L533.511 431.811L518.144 443.454C514.907 432.944 514.295 421.676 516.363 410.36C518.519 398.562 523.538 386.988 531.087 376.438C535.159 370.86 539.925 365.648 545.283 360.912C547.759 364.941 550.464 368.818 552.604 371.757C553.765 373.352 554.762 374.673 555.469 375.597C555.823 376.058 556.104 376.421 556.298 376.668C556.394 376.792 556.469 376.887 556.52 376.951L556.577 377.024L556.592 377.043L556.596 377.048L556.597 377.049L556.598 377.05C556.598 377.05 556.598 377.05 557.381 376.428L556.598 377.05Z" fill="#2B4B1B" stroke="white" stroke-width="2"/>
<path d="M508.264 466.809H141.736C123.709 466.809 109 452.108 109 434.166V213.038C109 192.573 119.638 173.574 137.118 162.83L294.607 66.0968C313.66 54.3975 337.742 54.4316 356.761 66.1992L513.019 162.796C530.396 173.54 541 192.505 541 212.902V434.132C541 452.108 526.257 466.775 508.264 466.775V466.809Z" fill="#0B5243" stroke="#CBEDE1" stroke-width="0.75" stroke-linecap="round" stroke-linejoin="round"/>
<path d="M510.948 447.992H127.783C141.693 373.074 152.801 207.183 143.675 34.909C202.495 34.909 443.686 27.3052 443.686 27.3052C463.27 26.5584 509.239 69.6692 509.239 83.3493C509.239 225.242 510.948 448.026 510.948 448.026V447.992Z" fill="white" stroke="#CBEDE1" stroke-width="0.75" stroke-miterlimit="10"/>
<path d="M112.756 448.335L297.946 324.157C315.37 314.011 336.911 314.011 354.336 324.157L541 443.81C537.844 454.47 525.839 466.809 509.924 466.809H142.358C126.717 466.809 117.01 457.554 112.756 448.335Z" fill="#088F73" stroke="#CBEDE1" stroke-width="0.75" stroke-linecap="round" stroke-linejoin="round"/>
<path d="M356.93 325.447L541 215.122V434.396C541 438.009 540.525 441.38 539.237 444.27L356.93 325.447Z" fill="#088F73" stroke="#CBEDE1" stroke-width="0.75" stroke-linecap="round" stroke-linejoin="round"/>
<path d="M510.75 87.4C510.75 67.0752 461.338 66.4269 461.338 66.4269C466.017 42.3418 454.539 27.3981 443.33 27.3981C443.33 27.3981 458.309 24.5779 485.27 48.5333C514.89 74.7578 510.75 87.3676 510.75 87.3676V87.4Z" fill="#CBEDE1" stroke="#CBEDE1" stroke-width="0.75" stroke-miterlimit="10"/>
<path d="M301.616 72.3739H198.123C190.395 72.3739 184.13 78.7505 184.13 86.6165V88.1835C184.13 96.0495 190.395 102.426 198.123 102.426H301.616C309.344 102.426 315.609 96.0495 315.609 88.1835V86.6165C315.609 78.7505 309.344 72.3739 301.616 72.3739Z" fill="#CBEDE1" fill-opacity="0.5"/>
<path d="M464.756 148.646C464.756 148.646 361.652 148.646 328.756 149.954C295.86 151.261 192.757 151.261 192.757 151.261C187.998 151.261 184.13 147.614 184.13 143.177C184.13 138.739 187.998 135.093 192.757 135.093C192.757 135.093 294.012 133.785 328.756 133.785C363.501 133.785 464.756 132.478 464.756 132.478C469.514 132.478 473.383 136.125 473.383 139.255V141.835C473.383 147.58 469.514 148.612 464.756 148.612V148.646Z" fill="#CBEDE1" fill-opacity="0.5"/>
<path d="M464.756 189.968C464.756 189.968 361.652 189.968 328.756 191.275C295.86 192.583 192.757 192.583 192.757 192.583C187.998 192.583 184.13 188.936 184.13 184.499C184.13 180.061 187.998 176.414 192.757 176.414C192.757 176.414 294.012 175.107 328.756 175.107C363.501 175.107 464.756 173.8 464.756 173.8C469.514 173.8 473.383 177.446 473.383 181.884C473.383 186.322 469.514 189.968 464.756 189.968Z" fill="#CBEDE1" fill-opacity="0.5"/>
<path d="M464.756 231.29C464.756 231.29 361.652 231.29 328.756 232.597C295.86 233.904 192.757 233.904 192.757 233.904C187.998 233.904 184.13 230.258 184.13 225.82C184.13 221.383 187.998 217.736 192.757 217.736C192.757 217.736 294.012 216.429 328.756 216.429C363.501 216.429 464.756 215.122 464.756 215.122C469.514 215.122 473.383 218.768 473.383 223.206C473.383 227.643 469.514 231.29 464.756 231.29Z" fill="#CBEDE1" fill-opacity="0.5"/>
<path d="M367.02 277.578C367.02 277.578 296.895 276.173 263.876 277.578C230.858 278.983 192.789 278.983 192.789 278.983C188.013 278.983 184.13 275.063 184.13 270.294C184.13 265.524 188.013 261.605 192.789 261.605C229.002 261.124 178.289 260.2 278.616 260.2C313.49 260.2 367.055 260.2 367.055 260.2C371.83 260.2 375.713 264.119 375.713 268.889C375.713 273.658 371.83 277.578 367.055 277.578H367.02Z" fill="#CBEDE1" fill-opacity="0.5"/>
<path d="M109 215.122L296.826 323.397L112.236 448.026C110.26 444.118 109.17 439.318 109 433.66V215.122Z" fill="#088F73" stroke="#CBEDE1" stroke-width="0.75" stroke-linecap="round" stroke-linejoin="round"/>
<path d="M508.264 466.809H141.736C123.709 466.809 109 452.108 109 434.166V213.038C109 192.573 119.638 173.574 137.118 162.83L294.607 66.0968C313.66 54.3975 337.742 54.4316 356.761 66.1992L513.019 162.796C530.396 173.54 541 192.505 541 212.902V434.132C541 452.108 526.257 466.775 508.264 466.775V466.809Z" fill="#2B4B1B" stroke="white" stroke-width="2" stroke-linecap="round" stroke-linejoin="round"/>
<path d="M510.948 447.992H127.783C141.693 373.074 152.801 207.183 143.675 34.909C202.495 34.909 443.686 27.3052 443.686 27.3052C463.27 26.5584 509.239 69.6692 509.239 83.3493C509.239 225.242 510.948 448.026 510.948 448.026V447.992Z" fill="white" stroke="#E3DCBF" stroke-width="3" stroke-miterlimit="10"/>
<path d="M112.756 448.335L297.946 324.157C315.37 314.011 336.911 314.011 354.336 324.157L541 443.81C537.844 454.47 525.839 466.809 509.924 466.809H142.358C126.717 466.809 117.01 457.554 112.756 448.335Z" fill="#68850E" stroke="white" stroke-width="2" stroke-linecap="round" stroke-linejoin="round"/>
<path d="M356.93 325.447L541 215.122V434.396C541 438.009 540.525 441.38 539.237 444.27L356.93 325.447Z" fill="#68850E" stroke="white" stroke-width="2" stroke-linecap="round" stroke-linejoin="round"/>
<path d="M510.75 87.4C510.75 67.0752 461.338 66.4269 461.338 66.4269C466.017 42.3418 454.539 27.3981 443.33 27.3981C443.33 27.3981 458.309 24.5779 485.27 48.5333C514.89 74.7578 510.75 87.3676 510.75 87.3676V87.4Z" fill="#E3DCBF" stroke="#E3DCBF" stroke-width="0.75" stroke-miterlimit="10"/>
<path d="M301.616 72.3739H198.123C190.395 72.3739 184.13 78.7505 184.13 86.6165V88.1835C184.13 96.0495 190.395 102.426 198.123 102.426H301.616C309.344 102.426 315.609 96.0495 315.609 88.1835V86.6165C315.609 78.7505 309.344 72.3739 301.616 72.3739Z" fill="#E3DCBF" fill-opacity="0.5"/>
<path d="M464.756 148.646C464.756 148.646 361.652 148.646 328.756 149.954C295.86 151.261 192.757 151.261 192.757 151.261C187.998 151.261 184.13 147.614 184.13 143.177C184.13 138.739 187.998 135.093 192.757 135.093C192.757 135.093 294.012 133.785 328.756 133.785C363.501 133.785 464.756 132.478 464.756 132.478C469.514 132.478 473.383 136.125 473.383 139.255V141.835C473.383 147.58 469.514 148.612 464.756 148.612V148.646Z" fill="#E3DCBF" fill-opacity="0.5"/>
<path d="M464.756 189.968C464.756 189.968 361.652 189.968 328.756 191.275C295.86 192.583 192.757 192.583 192.757 192.583C187.998 192.583 184.13 188.936 184.13 184.499C184.13 180.061 187.998 176.414 192.757 176.414C192.757 176.414 294.012 175.107 328.756 175.107C363.501 175.107 464.756 173.8 464.756 173.8C469.514 173.8 473.383 177.446 473.383 181.884C473.383 186.322 469.514 189.968 464.756 189.968Z" fill="#E3DCBF" fill-opacity="0.5"/>
<path d="M464.756 231.29C464.756 231.29 361.652 231.29 328.756 232.597C295.86 233.904 192.757 233.904 192.757 233.904C187.998 233.904 184.13 230.258 184.13 225.82C184.13 221.383 187.998 217.736 192.757 217.736C192.757 217.736 294.012 216.429 328.756 216.429C363.501 216.429 464.756 215.122 464.756 215.122C469.514 215.122 473.383 218.768 473.383 223.206C473.383 227.643 469.514 231.29 464.756 231.29Z" fill="#E3DCBF" fill-opacity="0.5"/>
<path d="M367.02 277.578C367.02 277.578 296.895 276.173 263.876 277.578C230.858 278.983 192.789 278.983 192.789 278.983C188.013 278.983 184.13 275.063 184.13 270.294C184.13 265.524 188.013 261.605 192.789 261.605C229.002 261.124 178.289 260.2 278.616 260.2C313.49 260.2 367.055 260.2 367.055 260.2C371.83 260.2 375.713 264.119 375.713 268.889C375.713 273.658 371.83 277.578 367.055 277.578H367.02Z" fill="#E3DCBF" fill-opacity="0.5"/>
<path d="M109 215.122L296.826 323.397L112.236 448.026C110.26 444.118 109.17 439.318 109 433.66V215.122Z" fill="#68850E" stroke="white" stroke-width="2" stroke-linecap="round" stroke-linejoin="round"/>
<path d="M323.731 1C276.733 1 249.319 44.0803 257.151 93.0351L280.65 96.9515C280.65 59.7458 298.275 34.2893 323.731 34.2893C349.187 34.2893 365.279 49.9548 362.895 77.3696C360.511 104.784 347.859 108.701 334.151 132.199C320.444 155.697 315.896 183.112 315.896 183.112H341.353C341.353 183.112 343.942 159.614 359.608 138.074C375.273 116.533 390.939 108.701 394.224 73.4532C397.51 38.2057 370.728 1 323.731 1Z" fill="#2B4B1B" stroke="white" stroke-width="0.75" stroke-linecap="round" stroke-linejoin="round"/>
<path d="M315.898 1C268.901 1 241.487 44.0803 249.319 93.0351L272.818 96.9515C272.818 59.7458 290.443 34.2893 315.898 34.2893C341.354 34.2893 357.447 49.9548 355.063 77.3696C352.679 104.784 340.026 108.701 326.319 132.199C312.612 155.697 308.064 183.112 308.064 183.112H333.521C333.521 183.112 336.11 159.614 351.776 138.074C367.441 116.533 383.107 108.701 386.392 73.4532C389.677 38.2057 362.896 1 315.898 1Z" fill="#787B34" stroke="white" stroke-width="2" stroke-linecap="round" stroke-linejoin="round"/>
<path d="M316.529 196.819H343.943L345.902 232.067H314.571L316.529 196.819Z" fill="#2B4B1B" stroke="white" stroke-width="0.75" stroke-linejoin="round"/>
<path d="M308.695 196.819H336.109L338.068 232.067H306.736L308.695 196.819Z" fill="#787B34" stroke="white" stroke-width="2" stroke-linejoin="round"/>
</svg>
