<svg width="587" height="436" viewBox="0 0 587 436" fill="none" xmlns="http://www.w3.org/2000/svg">
<path d="M455.374 384.9L463.084 360.989C478.083 357.492 493.878 357.105 509.097 359.862C484.375 370.265 479.664 398.286 460.369 414.865C454.304 419.997 446.933 423.923 438.803 426.353C430.674 428.783 421.994 429.654 413.406 428.902L393.516 434.606C394.088 422.975 397.674 411.587 404.025 401.225C410.376 390.863 419.341 381.774 430.303 374.584C436.501 370.602 443.274 367.287 450.464 364.718C452.201 374.729 455.374 384.9 455.374 384.9Z" fill="#F2F2F2"/>
<path d="M94.9323 350.903L81.9194 310.548C56.6044 304.645 29.9465 303.992 4.2605 308.645C45.9865 326.204 53.9365 373.497 86.502 401.476C96.739 410.138 109.179 416.765 122.9 420.866C136.621 424.967 151.271 426.437 165.765 425.168L199.335 434.795C198.368 415.165 192.317 395.944 181.598 378.456C170.879 360.968 155.748 345.628 137.246 333.493C126.786 326.772 115.354 321.177 103.219 316.84C100.288 333.738 94.9323 350.903 94.9323 350.903Z" fill="#246C60"/>
<path d="M430.978 103.458V37.9274C430.978 27.8684 426.193 18.2214 417.675 11.1087C409.158 3.99591 397.605 0 385.56 0H219.305C207.26 1.90054e-06 195.708 3.99592 187.19 11.1087C178.673 18.2214 173.888 27.8684 173.888 37.9274V397.434C173.888 407.493 178.673 417.14 187.19 424.253C195.708 431.365 207.26 435.361 219.305 435.361H385.56C397.605 435.361 409.158 431.365 417.675 424.253C426.193 417.14 430.978 407.493 430.978 397.434V150.104C431.354 150.104 431.726 150.042 432.074 149.922C432.421 149.802 432.737 149.625 433.003 149.403C433.269 149.181 433.48 148.918 433.624 148.627C433.768 148.337 433.842 148.026 433.842 147.712V105.85C433.842 105.216 433.54 104.607 433.003 104.159C432.466 103.71 431.737 103.458 430.978 103.458V103.458Z" fill="#3F3D56"/>
<path d="M421.312 38.1869V397.174C421.313 404.631 417.791 411.787 411.51 417.087C405.23 422.387 396.698 425.404 387.77 425.482C387.646 425.493 387.522 425.497 387.398 425.495H220.335C211.34 425.494 202.715 422.51 196.355 417.199C189.995 411.888 186.422 404.685 186.421 397.174V38.1869C186.422 30.676 189.995 23.4729 196.355 18.1619C202.715 12.8509 211.34 9.86691 220.335 9.86621H240.609C239.612 11.9101 239.232 14.1273 239.503 16.3226C239.773 18.5178 240.685 20.624 242.159 22.4557C243.633 24.2874 245.624 25.7885 247.956 26.8269C250.288 27.8654 252.889 28.4093 255.532 28.4109H350.778C353.419 28.4048 356.017 27.8578 358.345 26.8178C360.673 25.7779 362.661 24.2767 364.132 22.446C365.604 20.6154 366.515 18.5111 366.786 16.3178C367.057 14.1245 366.679 11.9092 365.686 9.86621H387.398C396.393 9.8669 405.018 12.8509 411.378 18.1619C417.738 23.4729 421.311 30.676 421.312 38.1869Z" fill="white"/>
<path d="M174.806 140.119C173.781 140.118 172.799 139.778 172.074 139.172C171.349 138.567 170.941 137.747 170.94 136.891V114.937C170.942 114.081 171.35 113.261 172.075 112.657C172.799 112.052 173.782 111.713 174.806 111.713C175.831 111.713 176.813 112.052 177.538 112.657C178.263 113.261 178.671 114.081 178.672 114.937V136.891C178.671 137.747 178.264 138.567 177.539 139.172C176.814 139.778 175.831 140.118 174.806 140.119V140.119Z" fill="#3F3D56"/>
<path d="M174.034 97.502C173.009 97.501 172.026 97.1605 171.301 96.5553C170.577 95.95 170.169 95.1294 170.168 94.2735V72.3194C170.169 71.464 170.577 70.644 171.302 70.0396C172.027 69.4352 173.009 69.0957 174.034 69.0957C175.058 69.0957 176.041 69.4352 176.766 70.0396C177.491 70.644 177.898 71.464 177.9 72.3194V94.2735C177.899 95.1294 177.491 95.95 176.766 96.5553C176.042 97.1605 175.059 97.501 174.034 97.502V97.502Z" fill="#3F3D56"/>
<path d="M276.873 13.5596C276.874 12.7036 277.282 11.883 278.007 11.2778C278.732 10.6725 279.714 10.3321 280.739 10.3311H307.029C308.054 10.3323 309.035 10.673 309.759 11.2784C310.483 11.8837 310.89 12.7042 310.89 13.5596C310.89 14.415 310.483 15.2355 309.759 15.8408C309.035 16.4461 308.054 16.7869 307.029 16.7881H280.739C279.714 16.7871 278.732 16.4467 278.007 15.8414C277.282 15.2362 276.874 14.4156 276.873 13.5596V13.5596Z" fill="white"/>
<path d="M174.806 177.569C173.781 177.568 172.799 177.228 172.074 176.623C171.349 176.017 170.941 175.197 170.94 174.341V152.387C170.942 151.531 171.35 150.711 172.075 150.107C172.799 149.503 173.782 149.163 174.806 149.163C175.831 149.163 176.813 149.503 177.538 150.107C178.263 150.711 178.671 151.531 178.672 152.387V174.341C178.671 175.197 178.264 176.017 177.539 176.623C176.814 177.228 175.831 177.568 174.806 177.569V177.569Z" fill="#3F3D56"/>
<path d="M321.72 16.7881C323.856 16.7881 325.587 15.3427 325.587 13.5596C325.587 11.7765 323.856 10.3311 321.72 10.3311C319.585 10.3311 317.854 11.7765 317.854 13.5596C317.854 15.3427 319.585 16.7881 321.72 16.7881Z" fill="white"/>
<path d="M285.715 411.573L296.12 411.572L301.07 378.057H285.713L285.715 411.573Z" fill="#9E616A"/>
<path d="M283.061 408.736L285.989 408.736L297.424 404.853L303.552 408.735H303.553C307.017 408.735 310.338 409.884 312.787 411.929C315.236 413.975 316.612 416.748 316.612 419.64V419.995L283.061 419.996L283.061 408.736Z" fill="#2F2E41"/>
<path d="M334.056 411.573L344.462 411.572L349.412 378.057H334.055L334.056 411.573Z" fill="#9E616A"/>
<path d="M331.402 408.736L334.331 408.736L345.766 404.853L351.894 408.735H351.895C355.359 408.735 358.68 409.884 361.129 411.929C363.578 413.975 364.954 416.748 364.954 419.64V419.995L331.403 419.996L331.402 408.736Z" fill="#2F2E41"/>
<path d="M342.373 228.157L260.619 229.938L262.041 263.183C262.041 263.183 260.619 272.088 263.463 274.463C266.306 276.837 267.728 276.837 266.306 280.993C264.885 285.149 272.397 291.936 271.484 292.698C270.572 293.46 268.439 297.616 268.439 297.616L275.548 331.454C275.548 331.454 280.524 390.227 281.946 391.414C283.368 392.601 284.79 391.414 283.368 394.382C281.946 397.351 280.524 396.163 281.946 397.351C283.206 398.485 284.392 399.674 285.501 400.913H302.688C302.688 400.913 303.984 394.976 303.984 394.382C303.984 393.789 305.406 390.227 305.406 389.633C305.406 389.039 304.149 387.99 304.149 387.99C303.715 386.783 303.422 385.544 303.273 384.29C303.273 383.103 299.008 337.391 299.008 337.391L307.539 278.025L328.155 336.204C328.155 336.204 328.155 387.258 329.577 388.446C330.999 389.633 330.999 389.039 330.288 391.414C329.577 393.789 326.733 393.195 328.866 394.976C330.999 396.757 331.71 393.789 330.999 396.757L330.288 399.725L351.615 399.98C351.615 399.98 354.459 394.976 353.037 393.195C351.615 391.414 351.7 391.9 353.435 388.986C355.169 386.071 355.88 385.477 355.169 384.884C354.459 384.29 354.459 381.133 354.459 381.133L350.904 324.33C350.904 324.33 350.193 264.371 350.193 262.59C350.14 261.673 350.342 260.759 350.784 259.919V257.501L348.06 248.935L342.373 228.157Z" fill="#2F2E41"/>
<path d="M278.413 108.925C290.584 108.925 300.451 100.686 300.451 90.5217C300.451 80.3577 290.584 72.1182 278.413 72.1182C266.241 72.1182 256.375 80.3577 256.375 90.5217C256.375 100.686 266.241 108.925 278.413 108.925Z" fill="#9E616A"/>
<path d="M268.4 103.04L267.509 102.443C267.492 102.432 265.799 101.31 264.183 101.506C263.814 101.558 263.463 101.673 263.152 101.846C262.841 102.019 262.578 102.245 262.379 102.51C262.266 102.655 262.103 102.769 261.912 102.837C261.721 102.905 261.51 102.924 261.305 102.891C259.209 102.616 255.423 97.4346 253.516 92.2305C252.339 89.0212 250.953 83.2058 254.772 80.1067C255.068 78.7036 258.115 66.0563 271.508 65.705C285.288 65.339 294.462 67.6627 296.675 72.0677C297.052 72.8172 297.432 73.6993 297.804 74.6895C297.994 75.1725 298.017 75.6906 297.869 76.1838C297.722 76.6771 297.41 77.1254 296.97 77.4768C296.571 77.8011 296.081 78.0376 295.546 78.1652C295.01 78.2927 294.445 78.3074 293.901 78.2078C293.834 78.7732 293.656 79.3256 293.375 79.8432C292.171 82.0224 289.141 83.4444 285.656 83.4664C283.591 83.4412 281.547 83.1119 279.618 82.4937L285.194 86.0757L271.87 84.6915L276.235 86.6401L275.361 86.9869C272.647 87.9911 270.408 89.7179 268.995 91.8973C267.581 94.0768 267.072 96.586 267.547 99.0326L268.4 103.04Z" fill="#2F2E41"/>
<path d="M338.358 219.36C341.459 214.888 338.506 208.428 338.506 208.428C338.506 208.428 346.528 198.523 344.559 194.298L335.113 133.167C335.113 133.167 332.16 126.591 325.27 123.304C323.379 122.401 313.457 122.756 311.28 122.771L304.213 120.248C303.802 121.5 296.094 108.45 296.053 109.748C291.132 109.748 287.962 110.315 280.305 111.392C267.009 113.263 273.708 123.295 274.55 124.479C274.211 124.497 273.875 124.536 273.542 124.596C271.81 124.867 265.904 129.133 265.904 129.133L255.343 136.966C239.427 147.397 242.99 163.672 242.99 163.672L266.2 183.177L256.032 222.311C256.032 222.311 260.353 228.122 258.119 230.728C255.884 233.333 277.804 232.585 277.804 232.585C292.933 238.216 346.232 233.457 346.232 233.457C345.494 231.846 338.358 219.36 338.358 219.36Z" fill="#E6E6E6"/>
<path d="M1.01879 435.43H585.729C585.999 435.429 586.259 435.339 586.45 435.179C586.641 435.019 586.748 434.803 586.748 434.577C586.748 434.351 586.641 434.134 586.45 433.974C586.259 433.814 585.999 433.724 585.729 433.724H1.01879C0.748313 433.724 0.489204 433.814 0.298227 433.974C0.10725 434.134 0 434.351 0 434.577C0 434.803 0.10725 435.019 0.298227 435.179C0.489204 435.339 0.748313 435.429 1.01879 435.43V435.43Z" fill="#CACACA"/>
<path d="M384.53 416.731C384.53 420.451 384.39 424.139 384.11 427.796C383.987 427.808 383.864 427.813 383.741 427.81H216.681C209.123 427.81 201.781 425.702 195.82 421.82C189.86 417.938 185.623 412.505 183.781 406.384C183.458 405.315 183.214 404.231 183.051 403.138C182.861 401.928 182.767 400.71 182.768 399.49V239.509C195.623 240.04 208.393 241.546 220.92 244.009C222.147 244.246 223.366 244.496 224.576 244.754C224.653 244.769 224.73 244.79 224.808 244.804C226.035 245.062 227.253 245.335 228.463 245.614C254.289 251.538 278.532 261.506 299.902 274.988C301.129 275.754 302.348 276.543 303.558 277.338L303.789 277.489C305.814 278.822 307.808 280.188 309.77 281.588C310.208 281.896 310.646 282.211 311.075 282.534C312.13 283.293 313.186 284.067 314.215 284.848C337.003 301.977 355.093 323.013 367.248 346.519C367.651 347.286 368.037 348.06 368.423 348.834C368.578 349.149 368.732 349.464 368.887 349.779C369.032 350.066 369.17 350.353 369.307 350.639C379.395 371.654 384.563 394.091 384.53 416.731V416.731Z" fill="#3F3D56"/>
<path opacity="0.2" d="M307.445 400.824C307.444 394.121 309.025 387.483 312.096 381.29C315.167 375.097 319.67 369.469 325.346 364.729C331.022 359.989 337.761 356.229 345.177 353.665C352.593 351.1 360.542 349.78 368.569 349.781H368.887C368.733 349.466 368.578 349.15 368.424 348.835C368.037 348.061 367.651 347.287 367.248 346.52H307.445V282.535H311.075C310.646 282.213 310.208 281.897 309.771 281.589C307.806 280.192 305.812 278.825 303.79 277.49L303.558 277.34V279.275H228.464V245.616C227.254 245.336 226.035 245.064 224.808 244.806C224.731 244.792 224.654 244.77 224.576 244.756V279.275H186.424V282.535H224.576V346.52H186.424V349.781H224.576V400.824H186.707C186.87 401.918 187.114 403.002 187.437 404.071H224.576V425.497H228.464V404.071H303.558V425.497H307.445V404.071H372.963V400.824H307.445ZM303.558 400.824H228.464V349.781H303.558V400.824ZM303.558 346.52H228.464V345.245C228.464 328.613 236.375 312.663 250.458 300.902C264.541 289.142 283.642 282.535 303.558 282.535V346.52Z" fill="black"/>
<path d="M262.313 262.906C261.541 262.183 260.968 261.326 260.636 260.398C260.303 259.469 260.218 258.491 260.387 257.533C260.556 256.574 260.974 255.657 261.613 254.848C262.252 254.039 263.096 253.357 264.084 252.849L254.072 219.98L267.761 224.361L275.369 255.399C276.279 256.843 276.524 258.515 276.057 260.1C275.59 261.684 274.443 263.07 272.834 263.996C271.224 264.921 269.264 265.321 267.325 265.12C265.386 264.92 263.603 264.132 262.313 262.906Z" fill="#9E616A"/>
<path d="M243.886 157.421L242.649 170.546C242.649 170.546 241.112 184.966 241.514 187.633C241.917 190.299 242.666 206.583 242.666 206.583L255.697 228.11L270.461 224.822L269.578 214.724L270.461 224L272.43 215.78L267.509 201.807L270.461 196.875L268.972 180.32L243.886 157.421Z" fill="#E6E6E6"/>
<path d="M583.401 245.983C581.663 244.261 579.196 243.165 576.515 242.921C576.134 242.887 575.75 242.869 575.367 242.869L377.478 242.715C376.046 242.711 374.627 242.952 373.311 243.424C371.994 243.895 370.808 244.588 369.825 245.457C367.93 247.177 366.895 249.437 366.931 251.773L366.901 278.618C366.886 283.481 368.148 288.289 370.599 292.701C369.231 297.031 366.945 301.121 363.85 304.777C362.887 305.936 362.335 307.297 362.257 308.706C362.18 310.115 362.579 311.513 363.411 312.741C364.242 313.968 365.472 314.975 366.957 315.645C368.443 316.315 370.125 316.622 371.81 316.529C373.896 316.422 375.974 316.224 378.035 315.938C384.035 315.153 389.76 313.291 394.814 310.48C398.703 311.502 402.755 312.023 406.831 312.025L545.98 312.133C551.228 312.149 556.427 311.294 561.276 309.617C566.124 307.939 570.525 305.474 574.222 302.363C581.754 295.942 585.939 287.294 585.864 278.305L585.893 251.955C585.937 249.781 585.054 247.664 583.401 245.983V245.983Z" fill="#BDB689"/>
<path d="M531.696 267.076L421.093 266.989C420.777 266.989 420.465 266.937 420.173 266.836C419.881 266.735 419.616 266.586 419.392 266.399C419.169 266.213 418.992 265.991 418.872 265.747C418.751 265.503 418.689 265.242 418.689 264.978C418.69 264.714 418.752 264.453 418.873 264.209C418.994 263.965 419.172 263.744 419.396 263.557C419.619 263.371 419.885 263.223 420.177 263.122C420.469 263.022 420.782 262.97 421.098 262.97L531.701 263.056C532.339 263.057 532.951 263.269 533.402 263.646C533.853 264.024 534.105 264.535 534.105 265.068C534.104 265.601 533.85 266.112 533.398 266.488C532.947 266.865 532.334 267.076 531.696 267.076V267.076Z" fill="white"/>
<path d="M531.682 279.411L421.079 279.324C420.763 279.324 420.451 279.272 420.159 279.171C419.867 279.069 419.602 278.921 419.379 278.734C419.155 278.548 418.978 278.326 418.858 278.082C418.737 277.838 418.675 277.577 418.675 277.313C418.676 277.049 418.738 276.788 418.859 276.544C418.981 276.3 419.158 276.079 419.382 275.892C419.605 275.706 419.871 275.558 420.163 275.457C420.455 275.357 420.768 275.305 421.084 275.305L531.687 275.391C532.325 275.392 532.937 275.604 533.388 275.981C533.839 276.359 534.092 276.87 534.091 277.403C534.09 277.936 533.836 278.447 533.385 278.823C532.933 279.2 532.32 279.411 531.682 279.411H531.682Z" fill="white"/>
<path d="M433.955 291.669L421.066 291.659C420.75 291.659 420.437 291.607 420.145 291.506C419.853 291.404 419.588 291.256 419.365 291.069C419.142 290.883 418.965 290.661 418.844 290.417C418.723 290.173 418.661 289.912 418.662 289.648C418.662 289.384 418.724 289.123 418.846 288.879C418.967 288.635 419.144 288.414 419.368 288.227C419.592 288.041 419.857 287.893 420.149 287.792C420.441 287.692 420.754 287.64 421.07 287.64L433.959 287.65C434.597 287.652 435.208 287.864 435.658 288.241C436.108 288.618 436.36 289.129 436.36 289.662C436.359 290.194 436.106 290.704 435.655 291.081C435.204 291.457 434.593 291.669 433.955 291.669V291.669Z" fill="white"/>
<path d="M2.74427 142.077C4.48298 140.355 6.94911 139.259 9.63058 139.015C10.0119 138.981 10.3951 138.963 10.7786 138.963L208.668 138.809C210.1 138.804 211.518 139.046 212.835 139.517C214.151 139.989 215.338 140.681 216.321 141.551C218.216 143.271 219.251 145.531 219.214 147.867L219.244 174.711C219.26 179.575 217.998 184.383 215.547 188.795C216.915 193.125 219.2 197.215 222.295 200.871C223.258 202.029 223.811 203.391 223.888 204.8C223.966 206.209 223.566 207.607 222.735 208.835C221.903 210.062 220.674 211.069 219.188 211.739C217.702 212.409 216.02 212.716 214.335 212.623C212.249 212.516 210.172 212.318 208.11 212.032C202.11 211.247 196.386 209.385 191.331 206.574C187.443 207.596 183.391 208.117 179.315 208.119L40.1656 208.227C34.9177 208.243 29.7183 207.388 24.8699 205.71C20.0215 204.033 15.6209 201.567 11.924 198.457C4.39133 192.036 0.206096 183.387 0.281802 174.399L0.252288 148.049C0.208462 145.875 1.09172 143.758 2.74427 142.077V142.077Z" fill="#2B4B1B"/>
<path d="M52.04 161.162C52.0402 160.629 52.2934 160.118 52.7441 159.741C53.1948 159.364 53.8063 159.151 54.4443 159.15L165.047 159.064C165.685 159.063 166.298 159.275 166.749 159.651C167.201 160.028 167.455 160.539 167.456 161.072C167.456 161.605 167.203 162.116 166.752 162.493C166.302 162.87 165.69 163.083 165.052 163.083L54.4488 163.169C53.8108 163.169 53.1989 162.958 52.7473 162.581C52.2958 162.205 52.0414 161.694 52.04 161.162V161.162Z" fill="white"/>
<path d="M52.0542 173.496C52.0544 172.963 52.3076 172.452 52.7583 172.075C53.209 171.698 53.8204 171.486 54.4584 171.485L165.061 171.398C165.699 171.398 166.312 171.609 166.763 171.986C167.215 172.362 167.469 172.873 167.47 173.406C167.47 173.939 167.217 174.45 166.767 174.828C166.316 175.205 165.704 175.417 165.066 175.418L54.4629 175.504C53.8249 175.504 53.213 175.292 52.7615 174.916C52.3099 174.54 52.0556 174.029 52.0542 173.496V173.496Z" fill="white"/>
<path d="M149.781 185.755C149.781 185.223 150.034 184.712 150.485 184.335C150.935 183.957 151.547 183.745 152.185 183.744L165.074 183.734C165.712 183.733 166.324 183.945 166.776 184.321C167.228 184.698 167.482 185.209 167.483 185.742C167.483 186.275 167.23 186.786 166.779 187.163C166.328 187.54 165.717 187.753 165.078 187.753L152.189 187.763C151.551 187.763 150.939 187.552 150.488 187.175C150.036 186.799 149.782 186.288 149.781 185.755V185.755Z" fill="white"/>
<path d="M401.317 79.9439C400.215 80.4051 399.247 81.0625 398.481 81.87C397.716 82.6774 397.171 83.6152 396.887 84.6173C396.602 85.6193 396.584 86.6613 396.834 87.6698C397.084 88.6783 397.596 89.6288 398.333 90.4543L381.507 111.173L397.084 111.341L410.674 91.6407C412.253 90.5144 413.282 88.9437 413.566 87.2261C413.85 85.5086 413.37 83.7636 412.217 82.3218C411.064 80.88 409.317 79.8416 407.308 79.4033C405.299 78.9651 403.168 79.1574 401.317 79.9439V79.9439Z" fill="#9E616A"/>
<path d="M406.661 99.4819L380.74 139.285L380.51 139.297C380.32 139.308 372.073 139.764 362 140.22C360.301 140.297 359.3 142.814 357.527 142.889C356.306 142.94 351.799 147.671 350.567 147.72C339.588 148.155 333.291 152.345 329.114 152.019C323.451 151.625 315.909 138.618 311.795 135.345L311.699 135.26L311.684 135.143C311.396 132.756 312.091 130.358 313.654 128.345C315.216 126.332 317.554 124.824 320.281 124.069C333.47 120.484 347.476 119.508 361.195 121.218L368.997 122.198L392.679 95.6353L406.661 99.4819Z" fill="#E6E6E6"/>
<path d="M546.501 22.4048C544.762 20.6828 542.296 19.5862 539.615 19.3427C539.234 19.3083 538.85 19.2909 538.467 19.2906L340.578 19.1363C339.145 19.132 337.727 19.3732 336.411 19.845C335.094 20.3167 333.908 21.0089 332.924 21.8788C331.03 23.5984 329.995 25.8581 330.031 28.1947L330.001 55.039C329.986 59.9029 331.248 64.7104 333.698 69.1228C332.331 73.4524 330.045 77.5423 326.95 81.1986C325.987 82.3571 325.435 83.7189 325.357 85.1276C325.279 86.5363 325.679 87.9347 326.511 89.1622C327.342 90.3897 328.571 91.3963 330.057 92.0665C331.543 92.7367 333.225 93.0432 334.91 92.9507C336.996 92.8432 339.074 92.6458 341.135 92.3594C347.135 91.5748 352.86 89.7128 357.914 86.9018C361.802 87.9237 365.855 88.4445 369.931 88.4462L509.08 88.5547C514.328 88.5707 519.527 87.7152 524.375 86.0379C529.224 84.3607 533.624 81.8951 537.321 78.7846C544.854 72.3636 549.039 63.715 548.964 54.7265L548.993 28.3765C549.037 26.2021 548.154 24.0855 546.501 22.4048V22.4048Z" fill="#BDB689"/>
<path d="M494.797 43.4951L384.194 43.4088C383.878 43.4086 383.565 43.3564 383.273 43.2551C382.981 43.1539 382.716 43.0057 382.493 42.8189C382.27 42.6321 382.093 42.4105 381.972 42.1665C381.851 41.9226 381.789 41.6613 381.79 41.3974C381.79 41.1335 381.852 40.8722 381.974 40.6285C382.095 40.3847 382.272 40.1634 382.496 39.9769C382.72 39.7905 382.985 39.6427 383.277 39.5419C383.569 39.4411 383.882 39.3894 384.198 39.3896L494.801 39.4759C495.439 39.4764 496.051 39.6886 496.502 40.0658C496.953 40.443 497.206 40.9544 497.205 41.4874C497.205 42.0203 496.95 42.5313 496.499 42.9078C496.047 43.2843 495.435 43.4956 494.797 43.4951V43.4951Z" fill="white"/>
<path d="M494.783 55.832L384.18 55.7458C383.542 55.7453 382.93 55.5331 382.479 55.1558C382.028 54.7786 381.776 54.2673 381.776 53.7343C381.777 53.2013 382.031 52.6904 382.483 52.3138C382.934 51.9373 383.547 51.7261 384.185 51.7266L494.788 51.8128C495.426 51.8133 496.038 52.0255 496.489 52.4027C496.939 52.7799 497.192 53.2913 497.192 53.8243C497.191 54.3572 496.937 54.8682 496.485 55.2447C496.034 55.6212 495.421 55.8325 494.783 55.832H494.783Z" fill="white"/>
<path d="M397.056 68.0903L384.167 68.0802C383.851 68.08 383.538 68.0278 383.246 67.9265C382.954 67.8253 382.689 67.6771 382.466 67.4903C382.243 67.3035 382.066 67.0819 381.945 66.8379C381.824 66.594 381.762 66.3327 381.763 66.0688C381.763 65.8049 381.826 65.5436 381.947 65.2999C382.068 65.0561 382.245 64.8347 382.469 64.6483C382.693 64.4619 382.958 64.3141 383.25 64.2133C383.542 64.1125 383.855 64.0608 384.171 64.061L397.061 64.0711C397.698 64.0724 398.309 64.285 398.759 64.6622C399.209 65.0393 399.461 65.5501 399.461 66.0825C399.46 66.615 399.207 67.1254 398.756 67.5018C398.305 67.8783 397.694 68.0899 397.056 68.0903V68.0903Z" fill="white"/>
</svg>
