<svg width="676" height="559" viewBox="0 0 676 559" fill="none" xmlns="http://www.w3.org/2000/svg">
<path d="M145.723 377.157L145.677 377.02L145.594 376.902C135.878 363.035 128.191 347.732 123.102 332.134C118.013 316.536 115.657 301.059 116.191 286.851C117.029 268.139 122.893 252.078 128.756 236.022C130.013 232.579 131.27 229.137 132.477 225.669C138.929 207.136 143.899 187.986 139.469 164.551C157.344 187.207 171.97 212.896 182.178 239.598L181.036 249.888C181.026 249.924 181.012 249.969 180.997 250.024C180.956 250.168 180.9 250.375 180.833 250.635C180.701 251.154 180.53 251.889 180.372 252.754C180.06 254.47 179.79 256.76 180.02 258.923C180.247 261.063 180.989 263.299 182.914 264.595C184.679 265.783 187.172 266.004 190.518 265.057C194.322 278.876 196.788 292.575 197.863 305.843C199.617 329.995 196.854 352.238 189.795 371.053C182.915 389.391 172.117 404.042 158.14 414.093L145.723 377.157Z" fill="#E3DCBF" stroke="white" stroke-width="2"/>
<path d="M139.039 356.318L138.364 358.617L140.474 357.479L139.999 356.599C140.474 357.479 140.474 357.479 140.474 357.479L140.475 357.479L140.477 357.477L140.486 357.473L140.521 357.454L140.658 357.379C140.777 357.314 140.954 357.217 141.183 357.09C141.642 356.837 142.311 356.464 143.154 355.985C144.84 355.026 147.224 353.643 150.022 351.939C155.381 348.674 162.271 344.224 168.671 339.332C177.604 351.979 185.143 364.969 191.118 378.008C201.775 401.775 207.185 425.184 207.009 446.624C206.838 467.55 201.351 486.106 190.958 501.108L164.806 468.062L164.719 467.951L164.604 467.868C149.721 457.239 136.351 444.458 125.486 430.477C114.62 416.496 106.549 401.688 101.854 387.158C95.8063 367.978 95.7941 349.731 95.782 331.5C95.7794 327.592 95.7768 323.685 95.7147 319.77C95.382 298.776 93.3219 277.687 80.1466 255.525C106.471 272.165 130.649 292.991 150.765 316.374L139.039 356.318Z" fill="#787B34" stroke="white" stroke-width="2"/>
<path d="M585.255 20H239.424C215.994 20 197 40.2126 197 65.146V513.203C197 538.136 215.994 558.349 239.424 558.349H585.255C608.685 558.349 627.679 538.136 627.679 513.203V65.146C627.679 40.2126 608.685 20 585.255 20Z" fill="#68850E"/>
<path d="M569.307 2H211.123C191.173 2 175 18.1079 175 37.9779V498.284C175 518.154 191.173 534.262 211.123 534.262H569.307C589.258 534.262 605.431 518.154 605.431 498.284V37.9779C605.431 18.1079 589.258 2 569.307 2Z" fill="white" stroke="#E3DCBF" stroke-width="3" stroke-miterlimit="10"/>
<path d="M307.567 403.687H250.435C242.693 403.687 236.417 409.938 236.417 417.648C236.417 425.359 242.693 431.609 250.435 431.609H307.567C315.309 431.609 321.585 425.359 321.585 417.648C321.585 409.938 315.309 403.687 307.567 403.687Z" fill="#2B4B1B"/>
<path d="M489.418 450.75H243.683C239.67 450.75 236.417 453.983 236.417 457.97C236.417 461.957 239.67 465.189 243.683 465.189H489.418C493.431 465.189 496.684 461.957 496.684 457.97C496.684 453.983 493.431 450.75 489.418 450.75Z" fill="#E3DCBF"/>
<path d="M234.817 141.572H288.47L334.874 283.682H482.784" stroke="#787B34" stroke-width="15" stroke-linecap="round" stroke-linejoin="round"/>
<path d="M334.873 174.925L358.075 253.231H468.282L490.034 174.925H334.873Z" fill="#68850E" stroke="#68850E" stroke-width="15" stroke-linecap="round" stroke-linejoin="round"/>
<circle cx="346.472" cy="322.836" r="17.4012" fill="#68850E"/>
<circle cx="471.182" cy="322.836" r="17.4012" fill="#68850E"/>
<path d="M511.332 64.3551L488.356 105.217" stroke="#2B4B1B" stroke-width="15" stroke-linecap="round" stroke-linejoin="round"/>
<path d="M445.832 53.841L451.854 100.331" stroke="#2B4B1B" stroke-width="15" stroke-linecap="round" stroke-linejoin="round"/>
<path d="M552.541 106.846L511.667 129.801" stroke="#2B4B1B" stroke-width="15" stroke-linecap="round" stroke-linejoin="round"/>
<path d="M599.149 491.902C640.331 491.902 673.717 458.516 673.717 417.334C673.717 376.151 640.331 342.766 599.149 342.766C557.966 342.766 524.581 376.151 524.581 417.334C524.581 458.516 557.966 491.902 599.149 491.902Z" fill="#787B34" stroke="#E3DCBF" stroke-width="3" stroke-miterlimit="10"/>
<path d="M586.566 377.962V404.529H563.899C557.327 404.529 552 409.856 552 416.427C552 422.999 557.327 428.326 563.899 428.326H586.566V455.459C586.566 462.066 591.922 467.421 598.528 467.421C605.134 467.421 610.49 462.066 610.49 455.459V428.326H634.101C640.673 428.326 646 422.999 646 416.427C646 409.856 640.673 404.529 634.101 404.529H610.49V377.962C610.49 371.355 605.134 366 598.528 366C591.922 366 586.566 371.355 586.566 377.962Z" fill="#E3DCBF"/>
</svg>
