<svg width="14" height="14" viewBox="0 0 14 14" fill="none" xmlns="http://www.w3.org/2000/svg">
<path d="M7.00016 0.333374C3.32016 0.333374 0.333496 3.32004 0.333496 7.00004C0.333496 10.68 3.32016 13.6667 7.00016 13.6667C10.6802 13.6667 13.6668 10.68 13.6668 7.00004C13.6668 3.32004 10.6802 0.333374 7.00016 0.333374ZM7.00016 12.3334C4.06016 12.3334 1.66683 9.94004 1.66683 7.00004C1.66683 4.06004 4.06016 1.66671 7.00016 1.66671C9.94016 1.66671 12.3335 4.06004 12.3335 7.00004C12.3335 9.94004 9.94016 12.3334 7.00016 12.3334ZM6.3335 9.66671H7.66683V11H6.3335V9.66671ZM7.40683 3.02671C6.0335 2.82671 4.82016 3.67337 4.4535 4.88671C4.3335 5.27337 4.62683 5.66671 5.0335 5.66671H5.16683C5.44016 5.66671 5.66016 5.47337 5.7535 5.22004C5.96683 4.62671 6.60016 4.22004 7.28683 4.36671C7.92016 4.50004 8.38683 5.12004 8.3335 5.76671C8.26683 6.66004 7.2535 6.85337 6.70016 7.68671C6.70016 7.69337 6.6935 7.69337 6.6935 7.70004C6.68683 7.71337 6.68016 7.72004 6.6735 7.73337C6.6135 7.83337 6.5535 7.94671 6.50683 8.06671C6.50016 8.08671 6.48683 8.10004 6.48016 8.12004C6.4735 8.13337 6.4735 8.14671 6.46683 8.16671C6.38683 8.39337 6.3335 8.66671 6.3335 9.00004H7.66683C7.66683 8.72004 7.74016 8.48671 7.8535 8.28671C7.86683 8.26671 7.8735 8.24671 7.88683 8.22671C7.94016 8.13337 8.00683 8.04671 8.0735 7.96671C8.08016 7.96004 8.08683 7.94671 8.0935 7.94004C8.16016 7.86004 8.2335 7.78671 8.3135 7.71337C8.9535 7.10671 9.82016 6.61337 9.64016 5.34004C9.48016 4.18004 8.56683 3.20004 7.40683 3.02671Z" fill="#2B4B1B"/>
</svg>