<svg width="78" height="84" viewBox="0 0 78 84" fill="none" xmlns="http://www.w3.org/2000/svg">
<path d="M21.0989 78.7671L0.708051 83.6671L5.2402 61.6212C2.2555 55.5853 0.69852 48.8448 0.708051 42.0004C0.708051 18.9879 17.9618 0.33374 39.2468 0.33374C60.5317 0.33374 77.7855 18.9879 77.7855 42.0004C77.7855 65.0129 60.5317 83.6671 39.2468 83.6671C32.9162 83.6774 26.6817 81.994 21.0989 78.7671ZM22.2165 69.9629L24.7331 71.4212C29.198 74.001 34.1843 75.3451 39.2468 75.3337C45.3446 75.3337 51.3054 73.3788 56.3755 69.716C61.4457 66.0533 65.3974 60.8474 67.7309 54.7565C70.0644 48.6656 70.675 41.9634 69.4853 35.4974C68.2957 29.0314 65.3593 23.0919 61.0476 18.4302C56.7358 13.7684 51.2422 10.5937 45.2616 9.30756C39.281 8.02139 33.0819 8.6815 27.4483 11.2044C21.8146 13.7273 16.9995 17.9998 13.6118 23.4814C10.224 28.963 8.41579 35.4077 8.41579 42.0004C8.41579 47.5587 9.6683 52.9087 12.0384 57.6921L13.3834 60.4129L10.8591 72.6921L22.2165 69.9629Z" fill="#2B4B1B"/>
</svg>
