<svg width="225" height="225" viewBox="0 0 225 225" fill="none" xmlns="http://www.w3.org/2000/svg">
<circle cx="112.334" cy="112.334" r="109.334" fill="#E3DCBF"/>
<path d="M112.5 222C172.975 222 222 172.975 222 112.5C222 52.0248 172.975 3 112.5 3C52.0248 3 3 52.0248 3 112.5C3 172.975 52.0248 222 112.5 222Z" stroke="#2B4B1B" stroke-width="5" stroke-miterlimit="10" stroke-linecap="round" stroke-linejoin="round"/>
<path d="M112.5 94.8644V175.549" stroke="#2B4B1B" stroke-width="5" stroke-miterlimit="10" stroke-linecap="round" stroke-linejoin="round"/>
<path d="M112.5 71.6964C118.866 71.6964 124.026 66.5359 124.026 60.1701C124.026 53.8043 118.866 48.6438 112.5 48.6438C106.134 48.6438 100.974 53.8043 100.974 60.1701C100.974 66.5359 106.134 71.6964 112.5 71.6964Z" fill="#2B4B1B"/>
</svg>
