<svg width="222" height="198" viewBox="0 0 222 198" fill="none" xmlns="http://www.w3.org/2000/svg">
<circle cx="170.971" cy="146" r="48.5291" fill="#E3DCBF" stroke="#2B4B1B" stroke-width="5"/>
<path d="M141.942 143.589L165.201 163.743L197.502 130.201" stroke="#2B4B1B" stroke-width="5" stroke-linecap="round"/>
<circle cx="85.9223" cy="48.1942" r="45.6942" fill="#E3DCBF" stroke="#2B4B1B" stroke-width="5"/>
<path d="M3.70872 145.348C3.70872 120.807 21.5192 99.8942 45.7471 95.9864L47.6505 95.6794L85.9223 121.194V184.272H3.70872V145.348Z" fill="#E3DCBF"/>
<path d="M47.6505 87.8835V87.8835C47.6505 96.0067 52.24 103.433 59.5055 107.065L86.088 120.357V173.641" stroke="#2B4B1B" stroke-width="5" stroke-linecap="round"/>
<path d="M124.526 87.8835V87.8835C124.526 96.1836 119.872 103.783 112.478 107.555L86.088 121.019" stroke="#2B4B1B" stroke-width="5" stroke-linecap="round"/>
<path d="M47.6505 94.9708L37.8711 98.0754C17.1063 104.667 3 123.946 3 145.732V184.272H122.068" stroke="#2B4B1B" stroke-width="5" stroke-linecap="round"/>
</svg>
