<svg width="144" height="134" viewBox="0 0 144 134" fill="none" xmlns="http://www.w3.org/2000/svg">
<path d="M62.317 77.7222H83.6711L95.0599 104.795H50.4536L62.317 77.7222Z" fill="#E3DCBF"/>
<path d="M15.8125 31.6976L41.9119 41.9855L72.2822 44.1513L103.127 41.9855L128.752 33.322L125.43 50.1074L114.041 65.8099L95.5345 76.0978H72.2822H50.4536L31.4722 65.8099L20.0833 50.1074L15.8125 31.6976Z" fill="#E3DCBF"/>
<ellipse cx="72.7568" cy="24.1171" rx="58.3679" ry="21.1171" stroke="#2B4B1B" stroke-width="5"/>
<path d="M14.3889 24.6586V27.7221C14.3889 55.3364 36.7746 77.7221 64.3889 77.7221H72.7568H81.1247C108.739 77.7221 131.125 55.3364 131.125 27.7221V24.6586" stroke="#2B4B1B" stroke-width="5" stroke-linecap="round"/>
<path d="M38.1156 130.786L62.7915 77.7223" stroke="#2B4B1B" stroke-width="5" stroke-linecap="round"/>
<path d="M107.398 130.786L82.722 77.7223" stroke="#2B4B1B" stroke-width="5" stroke-linecap="round"/>
<path d="M51.4026 102.296C50.0219 102.296 48.9026 103.415 48.9026 104.796C48.9026 106.176 50.0219 107.296 51.4026 107.296V102.296ZM51.4026 107.296L94.1109 107.296V102.296L51.4026 102.296V107.296Z" fill="#2B4B1B"/>
<path d="M67.5369 44.1514L102.653 8.41467" stroke="#2B4B1B" stroke-width="5" stroke-linecap="round"/>
<path d="M41.9119 40.9025L77.0276 4.08289" stroke="#2B4B1B" stroke-width="5" stroke-linecap="round"/>
<path d="M21.0324 33.322L47.6064 6.24878" stroke="#2B4B1B" stroke-width="5" stroke-linecap="round"/>
<path d="M96.009 43.0684L122.583 14.9122" stroke="#2B4B1B" stroke-width="5" stroke-linecap="round"/>
<path d="M13.9143 26.8246V26.8246C7.88651 26.8246 3 31.7111 3 37.7389V38.1953C3 44.4752 8.09086 49.5661 14.3708 49.5661H19.1342" stroke="#2B4B1B" stroke-width="5" stroke-linecap="round"/>
<path d="M131.884 26.8246V26.8246C136.706 26.8246 140.615 30.7338 140.615 35.556V38.1953C140.615 44.4752 135.525 49.5661 129.245 49.5661H126.854" stroke="#2B4B1B" stroke-width="5" stroke-linecap="round"/>
</svg>
