<svg width="78" height="84" viewBox="0 0 78 84" fill="none" xmlns="http://www.w3.org/2000/svg">
<path d="M38.5387 83.3333C17.2538 83.3333 0 64.6792 0 41.6667C0 18.6542 17.2538 0 38.5387 0C59.8237 0 77.0775 18.6542 77.0775 41.6667C77.0775 64.6792 59.8237 83.3333 38.5387 83.3333ZM38.5387 75C46.7156 75 54.5576 71.4881 60.3395 65.2369C66.1215 58.9857 69.3697 50.5072 69.3697 41.6667C69.3697 32.8261 66.1215 24.3477 60.3395 18.0964C54.5576 11.8452 46.7156 8.33333 38.5387 8.33333C30.3618 8.33333 22.5199 11.8452 16.7379 18.0964C10.956 24.3477 7.70775 32.8261 7.70775 41.6667C7.70775 50.5072 10.956 58.9857 16.7379 65.2369C22.5199 71.4881 30.3618 75 38.5387 75ZM34.6849 20.8333H42.3926V29.1667H34.6849V20.8333ZM34.6849 37.5H42.3926V62.5H34.6849V37.5Z" fill="#2B4B1B"/>
</svg>
