<svg width="152" height="129" viewBox="0 0 152 129" fill="none" xmlns="http://www.w3.org/2000/svg">
<path d="M148.892 60.7077C153 49 129 74.5 74.5 77C12 72 2.95386 50.5 2.95386 60.7077C2.95386 46.7477 35.6233 35.4308 75.9231 35.4308C116.223 35.4308 148.892 46.7477 148.892 60.7077Z" fill="#E3DCBF"/>
<path d="M148.892 48.7846C148.892 53.5534 145.404 58.2351 138.789 62.3436C132.175 66.4521 122.676 69.8374 111.278 72.148C99.8807 74.4585 87.0009 75.61 73.9767 75.4828C60.9524 75.3556 48.2588 73.9544 37.2142 71.4246C26.1697 68.8949 17.1771 65.329 11.1707 61.0972C5.16418 56.8655 2.36286 52.1223 3.05768 47.3603C3.75251 42.5984 7.91813 37.9914 15.1219 34.0178C22.3256 30.0443 32.3047 26.8492 44.0225 24.7644" stroke="#2B4B1B" stroke-width="5"/>
<path d="M148.892 48.7846C148.892 45.2773 147.005 41.8043 143.338 38.564C139.671 35.3237 134.296 32.3794 127.52 29.8994C120.744 27.4194 112.7 25.4521 103.847 24.1099C94.9942 22.7677 85.5056 22.0769 75.9231 22.0769" stroke="#2B4B1B" stroke-width="5"/>
<path d="M148.892 99.3385C148.892 102.846 147.005 106.319 143.338 109.559C139.671 112.799 134.296 115.744 127.52 118.224C120.744 120.704 112.7 122.671 103.847 124.013C94.9942 125.355 85.5055 126.046 75.9231 126.046C66.3406 126.046 56.852 125.355 47.999 124.013C39.1459 122.671 31.1019 120.704 24.326 118.224C17.5502 115.744 12.1754 112.799 8.50831 109.559C4.84126 106.319 2.95386 102.846 2.95386 99.3385" stroke="#2B4B1B" stroke-width="5"/>
<path d="M2.95386 50.6923V100.292M148.892 100.292V50.6923" stroke="#2B4B1B" stroke-width="5" stroke-linecap="round"/>
<path d="M20.1231 16.8308V7.13333C20.1231 4.85055 21.9736 3 24.2564 3V3C35.6703 3 44.9231 12.2528 44.9231 23.6667V58.3231" stroke="#2B4B1B" stroke-width="5" stroke-linecap="round"/>
<path d="M50.6462 16.8308V7.13333C50.6462 4.85055 52.4967 3 54.7795 3V3C66.1934 3 75.4462 12.2528 75.4462 23.6667V58.3231" stroke="#2B4B1B" stroke-width="5" stroke-linecap="round"/>
<line x1="45.8769" y1="31.0231" x2="75.4462" y2="31.0231" stroke="#2B4B1B" stroke-width="5"/>
<line x1="45.8769" y1="43.4231" x2="75.4462" y2="43.4231" stroke="#2B4B1B" stroke-width="5"/>
</svg>
