<svg width="225" height="198" viewBox="0 0 225 198" fill="none" xmlns="http://www.w3.org/2000/svg">
<path d="M83.8075 101.359C83.8075 98.5975 86.0461 96.3589 88.8075 96.3589H108.501C118.957 96.3589 129.15 99.6368 137.646 105.732L156.666 119.376C160.614 122.209 158.611 128.439 153.752 128.439H88.8075C86.0461 128.439 83.8075 126.2 83.8075 123.439V101.359Z" fill="#E3DCBF"/>
<path d="M113.671 0.376465L165.786 39.5855H60.9706L113.671 0.376465Z" fill="#E3DCBF"/>
<path d="M79.3257 164.159C79.3257 174.124 71.3728 182.14 61.6381 182.14C51.9035 182.14 43.9506 174.124 43.9506 164.159C43.9506 154.194 51.9035 146.178 61.6381 146.178C71.3728 146.178 79.3257 154.194 79.3257 164.159Z" fill="#E3DCBF" stroke="#2B4B1B" stroke-width="5"/>
<path d="M183.744 164.159C183.744 174.124 175.791 182.14 166.056 182.14C156.322 182.14 148.369 174.124 148.369 164.159C148.369 154.194 156.322 146.178 166.056 146.178C175.791 146.178 183.744 154.194 183.744 164.159Z" fill="#E3DCBF" stroke="#2B4B1B" stroke-width="5"/>
<path d="M145.877 164.084L91.5713 164.159" stroke="#2B4B1B" stroke-width="5" stroke-linecap="round"/>
<path d="M43.539 164.158L20.5669 157.802V127.731C20.5669 126.623 20.9352 125.546 21.6138 124.669L42.0377 98.2974C42.9847 97.0746 44.4442 96.3589 45.9908 96.3589H112.506C124.17 96.3589 135.467 100.437 144.441 107.886L160.177 120.948C160.837 121.496 161.627 121.865 162.47 122.019L208.33 130.42C210.159 130.755 211.651 132.077 212.203 133.852L217.968 152.375C218.864 155.253 217.028 158.264 214.059 158.785L183.459 164.158" stroke="#2B4B1B" stroke-width="5" stroke-linecap="round"/>
<path d="M138.908 128.14H89.6101C86.8487 128.14 84.6101 125.901 84.6101 123.14V110.484" stroke="#2B4B1B" stroke-width="5" stroke-linecap="round"/>
<path d="M17.0535 194.976H206.193" stroke="#2B4B1B" stroke-width="5" stroke-linecap="round"/>
<path d="M3 86.0599L110.614 4.32181C112.417 2.95244 114.915 2.96535 116.704 4.35327L222 86.0599" stroke="#2B4B1B" stroke-width="5" stroke-linecap="round"/>
<path d="M59.7995 44.0299L166.372 44.0299" stroke="#2B4B1B" stroke-width="5" stroke-linecap="round"/>
<path d="M17.639 76.3606V97.0523" stroke="#2B4B1B" stroke-width="5" stroke-linecap="round"/>
<path d="M207.361 76.3606V97.0523" stroke="#2B4B1B" stroke-width="5" stroke-linecap="round"/>
</svg>
